<svg width="109" height="121" viewBox="0 0 109 121" fill="none" xmlns="http://www.w3.org/2000/svg">
<path d="M108.169 9.84526C107.434 11.1442 106.86 11.3007 105.938 10.1394C104.393 8.36336 103.029 6.69463 101.302 4.81131C101.274 5.28971 101.207 5.62169 101.285 5.91455C100.191 26.3005 92.4447 43.6342 78.0447 57.9158C76.8401 59.1857 75.4533 60.3482 74.0664 61.5108C73.6742 61.7746 73.4641 62.1457 73.8671 62.5068C77.691 68.8409 77.4059 75.353 75.1767 82.081C72.6709 89.5121 68.0452 95.3237 62.47 100.452C56.2539 106.07 49.0389 110.233 41.1895 113.156C31.5503 116.881 21.5145 118.517 11.1807 119.607C8.19273 119.95 5.02252 120.186 1.99592 120.383C1.23927 120.432 0.626252 120.442 0.538373 119.525C0.450495 118.607 1.16856 118.411 1.92521 118.362C9.34808 117.909 16.5502 117.202 23.8466 115.685C35.0313 113.736 45.7916 110.176 55.2722 103.512C62.2943 98.617 68.251 92.5997 71.9721 84.5236C74.3386 79.4845 75.4018 74.1728 74.1178 68.7159C73.7599 66.7733 72.9711 64.948 71.79 63.3866C69.5415 64.7839 67.3316 66.3277 65.0445 67.5787C58.2218 71.4779 51.0132 73.9129 43.0052 73.8978C41.3097 73.889 39.5756 73.7337 37.7644 73.2856C33.9597 72.2821 32.5365 69.2173 34.1677 65.4772C35.9425 61.6979 38.9262 59.0016 42.6494 57.3594C49.6651 54.1922 56.9722 53.2998 64.5151 55.6387C67.3809 56.5842 69.7881 58.1254 72.0623 60.3306C89.3066 45.7448 98.2579 27.1412 99.2697 4.10949C98.8774 4.37331 98.6288 4.598 98.3416 4.67627C96.8111 5.87797 95.4629 7.18696 94.076 8.34954C93.5787 8.79891 92.8607 8.99457 92.3805 8.34071C91.9004 7.68686 92.2155 7.13019 92.7128 6.6808C94.4533 5.10799 96.3374 3.49604 98.0779 1.92322C99.8185 0.350402 100.796 0.554888 102.236 2.51647C104.08 4.83906 106.028 6.9761 107.871 9.29869C108.092 9.55241 108.131 9.69884 108.169 9.84526ZM70.714 61.6396C69.0357 60.5275 67.6446 59.3372 66.082 58.6644C57.761 55.125 49.6972 56.0667 41.9078 60.3863C39.5157 61.8228 37.5651 63.7667 36.3819 66.2863C35.3037 68.6203 35.9103 70.3382 38.3067 71.2546C39.5049 71.7128 40.9132 71.7999 42.1778 71.9261C50.263 72.2341 57.6152 69.76 64.5429 65.6752C66.5042 64.3561 68.4655 63.0369 70.714 61.6396Z" fill="#C4D9FF"/>
</svg>
