<svg width="172" height="39" viewBox="0 0 172 39" fill="none" xmlns="http://www.w3.org/2000/svg">
<path d="M83.4536 38.3478C60.9075 37.354 38.9841 32.8106 18.431 21.3101C13.1993 18.4704 8.46583 14.495 3.48325 11.0874C1.49021 9.6676 -0.751946 8.38976 0.24457 5.12419C1.11652 2.28456 3.35868 0.864746 6.0991 0.864746C7.843 0.864746 9.33778 1.43267 10.708 2.85249C27.0259 20.0322 47.0808 26.5634 68.3813 29.9709C94.9136 34.2304 120.948 32.8106 145.611 19.4643C153.459 15.3469 159.687 8.81571 166.787 3.27843C168.157 2.14258 170.026 -0.413087 171.521 1.71663C173.016 3.70438 170.649 5.55013 169.403 6.82797C154.58 22.162 136.892 31.1068 117.46 35.6502C106.249 38.3478 94.789 38.7738 83.4536 38.3478Z" fill="#C4D9FF"/>
</svg>
